# xmcd
#
# Track frame offsets: 
#        150
#        35715
#        74035
#        91507
#        100962
#        124882
#
# Disc length: 2347 seconds
#
# Revision: 3
# Processed by: cddbd v1.5.2PL0 Copyright (c) Steve Scherf et al.
# Submitted via: ExactAudioCopy v1.1
#
DISCID=50092906
DTITLE=Carlos Santana - Evil Ways
DYEAR=1997
DGENRE=Jazz
TTITLE0=Evil Ways
TTITLE1=Jam in E
TTITLE2=As the Years Go By
TTITLE3=Let's Get Ourselves Together
TTITLE4=Persuasion
TTITLE5=Latin Tropical
EXTD=YEAR: 1997
EXTT0=\n
EXTT1=
EXTT2=
EXTT3=
EXTT4=
EXTT5=
PLAYORDER=
